<svg xmlns="http://www.w3.org/2000/svg" xmlns:xlink="http://www.w3.org/1999/xlink" width="230" zoomAndPan="magnify" viewBox="0 0 172.5 74.999997" height="100" preserveAspectRatio="xMidYMid meet" version="1.0"><defs><clipPath id="fe7e823da7"><path d="M 0 0.109375 L 172 0.109375 L 172 74.890625 L 0 74.890625 Z M 0 0.109375 " clip-rule="nonzero"/></clipPath><clipPath id="ca6ac2c5fb"><path d="M 0 0.109375 L 27 0.109375 L 27 24 L 0 24 Z M 0 0.109375 " clip-rule="nonzero"/></clipPath><clipPath id="eb673db6ba"><path d="M 2.644531 -13.054688 L 32.601562 -1.363281 L 16.285156 40.4375 L -13.667969 28.746094 Z M 2.644531 -13.054688 " clip-rule="nonzero"/></clipPath><clipPath id="856e866dae"><path d="M 2.644531 -13.054688 L 32.601562 -1.363281 L 16.285156 40.4375 L -13.667969 28.746094 Z M 2.644531 -13.054688 " clip-rule="nonzero"/></clipPath><clipPath id="f5f106c8d0"><path d="M 10 0.109375 L 29 0.109375 L 29 7 L 10 7 Z M 10 0.109375 " clip-rule="nonzero"/></clipPath><clipPath id="75ecfc85f8"><path d="M 2.644531 -13.054688 L 32.601562 -1.363281 L 16.285156 40.4375 L -13.667969 28.746094 Z M 2.644531 -13.054688 " clip-rule="nonzero"/></clipPath><clipPath id="97bb699ed3"><path d="M 2.644531 -13.054688 L 32.601562 -1.363281 L 16.285156 40.4375 L -13.667969 28.746094 Z M 2.644531 -13.054688 " clip-rule="nonzero"/></clipPath><clipPath id="376b4e9499"><path d="M 16 3 L 24 3 L 24 10 L 16 10 Z M 16 3 " clip-rule="nonzero"/></clipPath><clipPath id="c761e839e4"><path d="M 2.644531 -13.054688 L 32.601562 -1.363281 L 16.285156 40.4375 L -13.667969 28.746094 Z M 2.644531 -13.054688 " clip-rule="nonzero"/></clipPath><clipPath id="68d120866c"><path d="M 2.644531 -13.054688 L 32.601562 -1.363281 L 16.285156 40.4375 L -13.667969 28.746094 Z M 2.644531 -13.054688 " clip-rule="nonzero"/></clipPath><clipPath id="ebeabda41d"><path d="M 0 8 L 15 8 L 15 30 L 0 30 Z M 0 8 " clip-rule="nonzero"/></clipPath><clipPath id="7cfb8a36d1"><path d="M 2.644531 -13.054688 L 32.601562 -1.363281 L 16.285156 40.4375 L -13.667969 28.746094 Z M 2.644531 -13.054688 " clip-rule="nonzero"/></clipPath><clipPath id="8f7e8b0698"><path d="M 2.644531 -13.054688 L 32.601562 -1.363281 L 16.285156 40.4375 L -13.667969 28.746094 Z M 2.644531 -13.054688 " clip-rule="nonzero"/></clipPath><clipPath id="dda2fff24d"><path d="M 4 7 L 13 7 L 13 14 L 4 14 Z M 4 7 " clip-rule="nonzero"/></clipPath><clipPath id="e1599f5912"><path d="M 2.644531 -13.054688 L 32.601562 -1.363281 L 16.285156 40.4375 L -13.667969 28.746094 Z M 2.644531 -13.054688 " clip-rule="nonzero"/></clipPath><clipPath id="d3558c8943"><path d="M 2.644531 -13.054688 L 32.601562 -1.363281 L 16.285156 40.4375 L -13.667969 28.746094 Z M 2.644531 -13.054688 " clip-rule="nonzero"/></clipPath><clipPath id="88e01db8ba"><path d="M 18 0.109375 L 33 0.109375 L 33 4 L 18 4 Z M 18 0.109375 " clip-rule="nonzero"/></clipPath><clipPath id="83423b1126"><path d="M 2.644531 -13.054688 L 32.601562 -1.363281 L 16.285156 40.4375 L -13.667969 28.746094 Z M 2.644531 -13.054688 " clip-rule="nonzero"/></clipPath><clipPath id="37d30e9ffc"><path d="M 2.644531 -13.054688 L 32.601562 -1.363281 L 16.285156 40.4375 L -13.667969 28.746094 Z M 2.644531 -13.054688 " clip-rule="nonzero"/></clipPath><clipPath id="2c98fc7019"><path d="M 0 0.109375 L 20 0.109375 L 20 19 L 0 19 Z M 0 0.109375 " clip-rule="nonzero"/></clipPath><clipPath id="d494f08da3"><path d="M 2.644531 -13.054688 L 32.601562 -1.363281 L 16.285156 40.4375 L -13.667969 28.746094 Z M 2.644531 -13.054688 " clip-rule="nonzero"/></clipPath><clipPath id="35cccea45c"><path d="M 2.644531 -13.054688 L 32.601562 -1.363281 L 16.285156 40.4375 L -13.667969 28.746094 Z M 2.644531 -13.054688 " clip-rule="nonzero"/></clipPath><clipPath id="dfd1c696ec"><path d="M 13 0.109375 L 23 0.109375 L 23 4 L 13 4 Z M 13 0.109375 " clip-rule="nonzero"/></clipPath><clipPath id="15c7ebcd66"><path d="M 2.644531 -13.054688 L 32.601562 -1.363281 L 16.285156 40.4375 L -13.667969 28.746094 Z M 2.644531 -13.054688 " clip-rule="nonzero"/></clipPath><clipPath id="c03dfc9f73"><path d="M 2.644531 -13.054688 L 32.601562 -1.363281 L 16.285156 40.4375 L -13.667969 28.746094 Z M 2.644531 -13.054688 " clip-rule="nonzero"/></clipPath><clipPath id="ec3932508a"><path d="M 0 22 L 1 22 L 1 32 L 0 32 Z M 0 22 " clip-rule="nonzero"/></clipPath><clipPath id="393df44935"><path d="M 2.644531 -13.054688 L 32.601562 -1.363281 L 16.285156 40.4375 L -13.667969 28.746094 Z M 2.644531 -13.054688 " clip-rule="nonzero"/></clipPath><clipPath id="1f631181aa"><path d="M 2.644531 -13.054688 L 32.601562 -1.363281 L 16.285156 40.4375 L -13.667969 28.746094 Z M 2.644531 -13.054688 " clip-rule="nonzero"/></clipPath><clipPath id="b41c23b3cb"><path d="M 0 0.109375 L 10 0.109375 L 10 9 L 0 9 Z M 0 0.109375 " clip-rule="nonzero"/></clipPath><clipPath id="9fb08c5ef7"><path d="M 2.644531 -13.054688 L 32.601562 -1.363281 L 16.285156 40.4375 L -13.667969 28.746094 Z M 2.644531 -13.054688 " clip-rule="nonzero"/></clipPath><clipPath id="ee4c5bdf10"><path d="M 2.644531 -13.054688 L 32.601562 -1.363281 L 16.285156 40.4375 L -13.667969 28.746094 Z M 2.644531 -13.054688 " clip-rule="nonzero"/></clipPath></defs><g clip-path="url(#fe7e823da7)"><path fill="#ffffff" d="M 0 0.109375 L 172 0.109375 L 172 74.890625 L 0 74.890625 Z M 0 0.109375 " fill-opacity="1" fill-rule="nonzero"/><path fill="#ffffff" d="M 0 0.109375 L 172 0.109375 L 172 74.890625 L 0 74.890625 Z M 0 0.109375 " fill-opacity="1" fill-rule="nonzero"/></g><g clip-path="url(#ca6ac2c5fb)"><g clip-path="url(#eb673db6ba)"><g clip-path="url(#856e866dae)"><path fill="#561b66" d="M 8.820312 -10.644531 L -3.292969 2.171875 L -9.8125 18.882812 L 0.746094 23.003906 L 26.152344 -3.878906 Z M 8.820312 -10.644531 " fill-opacity="1" fill-rule="nonzero"/></g></g></g><g clip-path="url(#f5f106c8d0)"><g clip-path="url(#75ecfc85f8)"><g clip-path="url(#97bb699ed3)"><path fill="#66259b" d="M 20.230469 6.722656 L 10.8125 3.046875 L 18.75 -5.355469 L 28.171875 -1.679688 Z M 20.230469 6.722656 " fill-opacity="1" fill-rule="nonzero"/></g></g></g><g clip-path="url(#376b4e9499)"><g clip-path="url(#c761e839e4)"><g clip-path="url(#68d120866c)"><path fill="#561b66" d="M 19.519531 9.636719 L 16.539062 8.472656 L 20.941406 3.8125 L 23.925781 4.976562 Z M 19.519531 9.636719 " fill-opacity="1" fill-rule="nonzero"/></g></g></g><g clip-path="url(#ebeabda41d)"><g clip-path="url(#7cfb8a36d1)"><g clip-path="url(#8f7e8b0698)"><path fill="#66259b" d="M -1.417969 29.679688 L -12.167969 25.484375 L 3.714844 8.679688 L 14.460938 12.875 Z M -1.417969 29.679688 " fill-opacity="1" fill-rule="nonzero"/></g></g></g><g clip-path="url(#dda2fff24d)"><g clip-path="url(#e1599f5912)"><g clip-path="url(#d3558c8943)"><path fill="#c521e0" d="M 7.878906 13.722656 L 4.894531 12.558594 L 9.300781 7.894531 L 12.285156 9.058594 Z M 7.878906 13.722656 " fill-opacity="1" fill-rule="nonzero"/></g></g></g><g clip-path="url(#88e01db8ba)"><g clip-path="url(#83423b1126)"><g clip-path="url(#37d30e9ffc)"><path fill="#c521e0" d="M 23.5 -4.914062 L 18.554688 0.320312 L 27.976562 3.996094 L 32.921875 -1.238281 Z M 23.5 -4.914062 " fill-opacity="1" fill-rule="nonzero"/></g></g></g><g clip-path="url(#2c98fc7019)"><g clip-path="url(#d494f08da3)"><g clip-path="url(#35cccea45c)"><path fill="#c521e0" d="M 19.542969 -6.457031 L -3.992188 18.449219 L -3.601562 18.601562 L 19.933594 -6.304688 Z M 19.542969 -6.457031 " fill-opacity="1" fill-rule="nonzero"/></g></g></g><g clip-path="url(#dfd1c696ec)"><g clip-path="url(#15c7ebcd66)"><g clip-path="url(#c03dfc9f73)"><path fill="#c521e0" d="M 21.84375 -5.558594 L 13.839844 2.910156 L 14.230469 3.0625 L 22.234375 -5.410156 Z M 21.84375 -5.558594 " fill-opacity="1" fill-rule="nonzero"/></g></g></g><g clip-path="url(#ec3932508a)"><g clip-path="url(#393df44935)"><g clip-path="url(#1f631181aa)"><path fill="#561b66" d="M 0.578125 22.9375 L -7.425781 31.410156 L -7.035156 31.5625 L 0.964844 23.089844 Z M 0.578125 22.9375 " fill-opacity="1" fill-rule="nonzero"/></g></g></g><g clip-path="url(#b41c23b3cb)"><g clip-path="url(#9fb08c5ef7)"><g clip-path="url(#ee4c5bdf10)"><path fill="#c521e0" d="M -5.855469 8.742188 L 9.023438 -7.003906 L 7.691406 -7.523438 L -4.574219 5.457031 Z M -5.855469 8.742188 " fill-opacity="1" fill-rule="nonzero"/></g></g></g></svg>