<svg xmlns="http://www.w3.org/2000/svg" xmlns:xlink="http://www.w3.org/1999/xlink" width="230" zoomAndPan="magnify" viewBox="0 0 172.5 74.999997" height="100" preserveAspectRatio="xMidYMid meet" version="1.0"><defs><clipPath id="bc2b5b2405"><path d="M 0 0.109375 L 172 0.109375 L 172 74.890625 L 0 74.890625 Z M 0 0.109375 " clip-rule="nonzero"/></clipPath><clipPath id="582baabc48"><path d="M 0 0.109375 L 27 0.109375 L 27 24 L 0 24 Z M 0 0.109375 " clip-rule="nonzero"/></clipPath><clipPath id="d89e7ff6f3"><path d="M 2.644531 -13.054688 L 32.601562 -1.363281 L 16.285156 40.4375 L -13.667969 28.746094 Z M 2.644531 -13.054688 " clip-rule="nonzero"/></clipPath><clipPath id="1f4d7236df"><path d="M 2.644531 -13.054688 L 32.601562 -1.363281 L 16.285156 40.4375 L -13.667969 28.746094 Z M 2.644531 -13.054688 " clip-rule="nonzero"/></clipPath><clipPath id="2435352ded"><path d="M 10 0.109375 L 29 0.109375 L 29 7 L 10 7 Z M 10 0.109375 " clip-rule="nonzero"/></clipPath><clipPath id="4e2d4b4b88"><path d="M 2.644531 -13.054688 L 32.601562 -1.363281 L 16.285156 40.4375 L -13.667969 28.746094 Z M 2.644531 -13.054688 " clip-rule="nonzero"/></clipPath><clipPath id="f6900ce74c"><path d="M 2.644531 -13.054688 L 32.601562 -1.363281 L 16.285156 40.4375 L -13.667969 28.746094 Z M 2.644531 -13.054688 " clip-rule="nonzero"/></clipPath><clipPath id="c917eeb677"><path d="M 16 3 L 24 3 L 24 10 L 16 10 Z M 16 3 " clip-rule="nonzero"/></clipPath><clipPath id="d4e9955970"><path d="M 2.644531 -13.054688 L 32.601562 -1.363281 L 16.285156 40.4375 L -13.667969 28.746094 Z M 2.644531 -13.054688 " clip-rule="nonzero"/></clipPath><clipPath id="a5375b3e28"><path d="M 2.644531 -13.054688 L 32.601562 -1.363281 L 16.285156 40.4375 L -13.667969 28.746094 Z M 2.644531 -13.054688 " clip-rule="nonzero"/></clipPath><clipPath id="dff2692d6c"><path d="M 0 8 L 15 8 L 15 30 L 0 30 Z M 0 8 " clip-rule="nonzero"/></clipPath><clipPath id="6c4f5c0c63"><path d="M 2.644531 -13.054688 L 32.601562 -1.363281 L 16.285156 40.4375 L -13.667969 28.746094 Z M 2.644531 -13.054688 " clip-rule="nonzero"/></clipPath><clipPath id="74a2957471"><path d="M 2.644531 -13.054688 L 32.601562 -1.363281 L 16.285156 40.4375 L -13.667969 28.746094 Z M 2.644531 -13.054688 " clip-rule="nonzero"/></clipPath><clipPath id="0814d2f246"><path d="M 4 7 L 13 7 L 13 14 L 4 14 Z M 4 7 " clip-rule="nonzero"/></clipPath><clipPath id="65f0a7b099"><path d="M 2.644531 -13.054688 L 32.601562 -1.363281 L 16.285156 40.4375 L -13.667969 28.746094 Z M 2.644531 -13.054688 " clip-rule="nonzero"/></clipPath><clipPath id="81f6ea81c0"><path d="M 2.644531 -13.054688 L 32.601562 -1.363281 L 16.285156 40.4375 L -13.667969 28.746094 Z M 2.644531 -13.054688 " clip-rule="nonzero"/></clipPath><clipPath id="6d2faaba5d"><path d="M 18 0.109375 L 33 0.109375 L 33 4 L 18 4 Z M 18 0.109375 " clip-rule="nonzero"/></clipPath><clipPath id="296c62381f"><path d="M 2.644531 -13.054688 L 32.601562 -1.363281 L 16.285156 40.4375 L -13.667969 28.746094 Z M 2.644531 -13.054688 " clip-rule="nonzero"/></clipPath><clipPath id="8e420ed491"><path d="M 2.644531 -13.054688 L 32.601562 -1.363281 L 16.285156 40.4375 L -13.667969 28.746094 Z M 2.644531 -13.054688 " clip-rule="nonzero"/></clipPath><clipPath id="8d27d8280b"><path d="M 0 0.109375 L 20 0.109375 L 20 19 L 0 19 Z M 0 0.109375 " clip-rule="nonzero"/></clipPath><clipPath id="8e77d6a7c9"><path d="M 2.644531 -13.054688 L 32.601562 -1.363281 L 16.285156 40.4375 L -13.667969 28.746094 Z M 2.644531 -13.054688 " clip-rule="nonzero"/></clipPath><clipPath id="76356b3a46"><path d="M 2.644531 -13.054688 L 32.601562 -1.363281 L 16.285156 40.4375 L -13.667969 28.746094 Z M 2.644531 -13.054688 " clip-rule="nonzero"/></clipPath><clipPath id="975842cbf3"><path d="M 13 0.109375 L 23 0.109375 L 23 4 L 13 4 Z M 13 0.109375 " clip-rule="nonzero"/></clipPath><clipPath id="1d60b06f76"><path d="M 2.644531 -13.054688 L 32.601562 -1.363281 L 16.285156 40.4375 L -13.667969 28.746094 Z M 2.644531 -13.054688 " clip-rule="nonzero"/></clipPath><clipPath id="0fa4dbe31b"><path d="M 2.644531 -13.054688 L 32.601562 -1.363281 L 16.285156 40.4375 L -13.667969 28.746094 Z M 2.644531 -13.054688 " clip-rule="nonzero"/></clipPath><clipPath id="2c75cc0670"><path d="M 0 22 L 1 22 L 1 32 L 0 32 Z M 0 22 " clip-rule="nonzero"/></clipPath><clipPath id="aaaeff4f3d"><path d="M 2.644531 -13.054688 L 32.601562 -1.363281 L 16.285156 40.4375 L -13.667969 28.746094 Z M 2.644531 -13.054688 " clip-rule="nonzero"/></clipPath><clipPath id="4d869e2be8"><path d="M 2.644531 -13.054688 L 32.601562 -1.363281 L 16.285156 40.4375 L -13.667969 28.746094 Z M 2.644531 -13.054688 " clip-rule="nonzero"/></clipPath><clipPath id="15eaa5cac8"><path d="M 0 0.109375 L 10 0.109375 L 10 9 L 0 9 Z M 0 0.109375 " clip-rule="nonzero"/></clipPath><clipPath id="b4aa743661"><path d="M 2.644531 -13.054688 L 32.601562 -1.363281 L 16.285156 40.4375 L -13.667969 28.746094 Z M 2.644531 -13.054688 " clip-rule="nonzero"/></clipPath><clipPath id="531d24de85"><path d="M 2.644531 -13.054688 L 32.601562 -1.363281 L 16.285156 40.4375 L -13.667969 28.746094 Z M 2.644531 -13.054688 " clip-rule="nonzero"/></clipPath></defs><g clip-path="url(#bc2b5b2405)"><path fill="#ffffff" d="M 0 0.109375 L 172 0.109375 L 172 74.890625 L 0 74.890625 Z M 0 0.109375 " fill-opacity="1" fill-rule="nonzero"/><path fill="#ffffff" d="M 0 0.109375 L 172 0.109375 L 172 74.890625 L 0 74.890625 Z M 0 0.109375 " fill-opacity="1" fill-rule="nonzero"/></g><g clip-path="url(#582baabc48)"><g clip-path="url(#d89e7ff6f3)"><g clip-path="url(#1f4d7236df)"><path fill="#561b66" d="M 8.820312 -10.644531 L -3.292969 2.171875 L -9.8125 18.882812 L 0.746094 23.003906 L 26.152344 -3.878906 Z M 8.820312 -10.644531 " fill-opacity="1" fill-rule="nonzero"/></g></g></g><g clip-path="url(#2435352ded)"><g clip-path="url(#4e2d4b4b88)"><g clip-path="url(#f6900ce74c)"><path fill="#66259b" d="M 20.230469 6.722656 L 10.8125 3.046875 L 18.75 -5.355469 L 28.171875 -1.679688 Z M 20.230469 6.722656 " fill-opacity="1" fill-rule="nonzero"/></g></g></g><g clip-path="url(#c917eeb677)"><g clip-path="url(#d4e9955970)"><g clip-path="url(#a5375b3e28)"><path fill="#561b66" d="M 19.519531 9.636719 L 16.539062 8.472656 L 20.941406 3.8125 L 23.925781 4.976562 Z M 19.519531 9.636719 " fill-opacity="1" fill-rule="nonzero"/></g></g></g><g clip-path="url(#dff2692d6c)"><g clip-path="url(#6c4f5c0c63)"><g clip-path="url(#74a2957471)"><path fill="#66259b" d="M -1.417969 29.679688 L -12.167969 25.484375 L 3.714844 8.679688 L 14.460938 12.875 Z M -1.417969 29.679688 " fill-opacity="1" fill-rule="nonzero"/></g></g></g><g clip-path="url(#0814d2f246)"><g clip-path="url(#65f0a7b099)"><g clip-path="url(#81f6ea81c0)"><path fill="#c521e0" d="M 7.878906 13.722656 L 4.894531 12.558594 L 9.300781 7.894531 L 12.285156 9.058594 Z M 7.878906 13.722656 " fill-opacity="1" fill-rule="nonzero"/></g></g></g><g clip-path="url(#6d2faaba5d)"><g clip-path="url(#296c62381f)"><g clip-path="url(#8e420ed491)"><path fill="#c521e0" d="M 23.5 -4.914062 L 18.554688 0.320312 L 27.976562 3.996094 L 32.921875 -1.238281 Z M 23.5 -4.914062 " fill-opacity="1" fill-rule="nonzero"/></g></g></g><g clip-path="url(#8d27d8280b)"><g clip-path="url(#8e77d6a7c9)"><g clip-path="url(#76356b3a46)"><path fill="#c521e0" d="M 19.542969 -6.457031 L -3.992188 18.449219 L -3.601562 18.601562 L 19.933594 -6.304688 Z M 19.542969 -6.457031 " fill-opacity="1" fill-rule="nonzero"/></g></g></g><g clip-path="url(#975842cbf3)"><g clip-path="url(#1d60b06f76)"><g clip-path="url(#0fa4dbe31b)"><path fill="#c521e0" d="M 21.84375 -5.558594 L 13.839844 2.910156 L 14.230469 3.0625 L 22.234375 -5.410156 Z M 21.84375 -5.558594 " fill-opacity="1" fill-rule="nonzero"/></g></g></g><g clip-path="url(#2c75cc0670)"><g clip-path="url(#aaaeff4f3d)"><g clip-path="url(#4d869e2be8)"><path fill="#561b66" d="M 0.578125 22.9375 L -7.425781 31.410156 L -7.035156 31.5625 L 0.964844 23.089844 Z M 0.578125 22.9375 " fill-opacity="1" fill-rule="nonzero"/></g></g></g><g clip-path="url(#15eaa5cac8)"><g clip-path="url(#b4aa743661)"><g clip-path="url(#531d24de85)"><path fill="#c521e0" d="M -5.855469 8.742188 L 9.023438 -7.003906 L 7.691406 -7.523438 L -4.574219 5.457031 Z M -5.855469 8.742188 " fill-opacity="1" fill-rule="nonzero"/></g></g></g></svg>