<svg xmlns="http://www.w3.org/2000/svg" xmlns:xlink="http://www.w3.org/1999/xlink" width="230" zoomAndPan="magnify" viewBox="0 0 172.5 74.999997" height="100" preserveAspectRatio="xMidYMid meet" version="1.0"><defs><clipPath id="cd3862ece8"><path d="M 0 0.109375 L 172 0.109375 L 172 74.890625 L 0 74.890625 Z M 0 0.109375 " clip-rule="nonzero"/></clipPath><clipPath id="3464b64b7f"><path d="M 0 0.109375 L 27 0.109375 L 27 24 L 0 24 Z M 0 0.109375 " clip-rule="nonzero"/></clipPath><clipPath id="62220c36cd"><path d="M 2.644531 -13.054688 L 32.601562 -1.363281 L 16.285156 40.4375 L -13.667969 28.746094 Z M 2.644531 -13.054688 " clip-rule="nonzero"/></clipPath><clipPath id="97c1e480b4"><path d="M 2.644531 -13.054688 L 32.601562 -1.363281 L 16.285156 40.4375 L -13.667969 28.746094 Z M 2.644531 -13.054688 " clip-rule="nonzero"/></clipPath><clipPath id="eb9b27dd48"><path d="M 10 0.109375 L 29 0.109375 L 29 7 L 10 7 Z M 10 0.109375 " clip-rule="nonzero"/></clipPath><clipPath id="361e6ef0d8"><path d="M 2.644531 -13.054688 L 32.601562 -1.363281 L 16.285156 40.4375 L -13.667969 28.746094 Z M 2.644531 -13.054688 " clip-rule="nonzero"/></clipPath><clipPath id="683837eddc"><path d="M 2.644531 -13.054688 L 32.601562 -1.363281 L 16.285156 40.4375 L -13.667969 28.746094 Z M 2.644531 -13.054688 " clip-rule="nonzero"/></clipPath><clipPath id="cc1f830de5"><path d="M 16 3 L 24 3 L 24 10 L 16 10 Z M 16 3 " clip-rule="nonzero"/></clipPath><clipPath id="762d116cf5"><path d="M 2.644531 -13.054688 L 32.601562 -1.363281 L 16.285156 40.4375 L -13.667969 28.746094 Z M 2.644531 -13.054688 " clip-rule="nonzero"/></clipPath><clipPath id="1faaf1a7f7"><path d="M 2.644531 -13.054688 L 32.601562 -1.363281 L 16.285156 40.4375 L -13.667969 28.746094 Z M 2.644531 -13.054688 " clip-rule="nonzero"/></clipPath><clipPath id="143df9e30e"><path d="M 0 8 L 15 8 L 15 30 L 0 30 Z M 0 8 " clip-rule="nonzero"/></clipPath><clipPath id="30ee8ce639"><path d="M 2.644531 -13.054688 L 32.601562 -1.363281 L 16.285156 40.4375 L -13.667969 28.746094 Z M 2.644531 -13.054688 " clip-rule="nonzero"/></clipPath><clipPath id="74504e16dc"><path d="M 2.644531 -13.054688 L 32.601562 -1.363281 L 16.285156 40.4375 L -13.667969 28.746094 Z M 2.644531 -13.054688 " clip-rule="nonzero"/></clipPath><clipPath id="3c662e2810"><path d="M 4 7 L 13 7 L 13 14 L 4 14 Z M 4 7 " clip-rule="nonzero"/></clipPath><clipPath id="0b20bd5d46"><path d="M 2.644531 -13.054688 L 32.601562 -1.363281 L 16.285156 40.4375 L -13.667969 28.746094 Z M 2.644531 -13.054688 " clip-rule="nonzero"/></clipPath><clipPath id="97dc57fa09"><path d="M 2.644531 -13.054688 L 32.601562 -1.363281 L 16.285156 40.4375 L -13.667969 28.746094 Z M 2.644531 -13.054688 " clip-rule="nonzero"/></clipPath><clipPath id="5d5df838ed"><path d="M 18 0.109375 L 33 0.109375 L 33 4 L 18 4 Z M 18 0.109375 " clip-rule="nonzero"/></clipPath><clipPath id="d1f0239feb"><path d="M 2.644531 -13.054688 L 32.601562 -1.363281 L 16.285156 40.4375 L -13.667969 28.746094 Z M 2.644531 -13.054688 " clip-rule="nonzero"/></clipPath><clipPath id="1151ab48f7"><path d="M 2.644531 -13.054688 L 32.601562 -1.363281 L 16.285156 40.4375 L -13.667969 28.746094 Z M 2.644531 -13.054688 " clip-rule="nonzero"/></clipPath><clipPath id="980d1b4039"><path d="M 0 0.109375 L 20 0.109375 L 20 19 L 0 19 Z M 0 0.109375 " clip-rule="nonzero"/></clipPath><clipPath id="6291576afd"><path d="M 2.644531 -13.054688 L 32.601562 -1.363281 L 16.285156 40.4375 L -13.667969 28.746094 Z M 2.644531 -13.054688 " clip-rule="nonzero"/></clipPath><clipPath id="3be202c1ad"><path d="M 2.644531 -13.054688 L 32.601562 -1.363281 L 16.285156 40.4375 L -13.667969 28.746094 Z M 2.644531 -13.054688 " clip-rule="nonzero"/></clipPath><clipPath id="fd5ea75bee"><path d="M 13 0.109375 L 23 0.109375 L 23 4 L 13 4 Z M 13 0.109375 " clip-rule="nonzero"/></clipPath><clipPath id="a8884a23c4"><path d="M 2.644531 -13.054688 L 32.601562 -1.363281 L 16.285156 40.4375 L -13.667969 28.746094 Z M 2.644531 -13.054688 " clip-rule="nonzero"/></clipPath><clipPath id="862089fd27"><path d="M 2.644531 -13.054688 L 32.601562 -1.363281 L 16.285156 40.4375 L -13.667969 28.746094 Z M 2.644531 -13.054688 " clip-rule="nonzero"/></clipPath><clipPath id="ed70a98233"><path d="M 0 22 L 1 22 L 1 32 L 0 32 Z M 0 22 " clip-rule="nonzero"/></clipPath><clipPath id="032974eb4f"><path d="M 2.644531 -13.054688 L 32.601562 -1.363281 L 16.285156 40.4375 L -13.667969 28.746094 Z M 2.644531 -13.054688 " clip-rule="nonzero"/></clipPath><clipPath id="16ea82eb07"><path d="M 2.644531 -13.054688 L 32.601562 -1.363281 L 16.285156 40.4375 L -13.667969 28.746094 Z M 2.644531 -13.054688 " clip-rule="nonzero"/></clipPath><clipPath id="effd714b91"><path d="M 0 0.109375 L 10 0.109375 L 10 9 L 0 9 Z M 0 0.109375 " clip-rule="nonzero"/></clipPath><clipPath id="df4782526f"><path d="M 2.644531 -13.054688 L 32.601562 -1.363281 L 16.285156 40.4375 L -13.667969 28.746094 Z M 2.644531 -13.054688 " clip-rule="nonzero"/></clipPath><clipPath id="23d97fb6e3"><path d="M 2.644531 -13.054688 L 32.601562 -1.363281 L 16.285156 40.4375 L -13.667969 28.746094 Z M 2.644531 -13.054688 " clip-rule="nonzero"/></clipPath></defs><g clip-path="url(#cd3862ece8)"><path fill="#ffffff" d="M 0 0.109375 L 172 0.109375 L 172 74.890625 L 0 74.890625 Z M 0 0.109375 " fill-opacity="1" fill-rule="nonzero"/><path fill="#ffffff" d="M 0 0.109375 L 172 0.109375 L 172 74.890625 L 0 74.890625 Z M 0 0.109375 " fill-opacity="1" fill-rule="nonzero"/></g><g clip-path="url(#3464b64b7f)"><g clip-path="url(#62220c36cd)"><g clip-path="url(#97c1e480b4)"><path fill="#561b66" d="M 8.820312 -10.644531 L -3.292969 2.171875 L -9.8125 18.882812 L 0.746094 23.003906 L 26.152344 -3.878906 Z M 8.820312 -10.644531 " fill-opacity="1" fill-rule="nonzero"/></g></g></g><g clip-path="url(#eb9b27dd48)"><g clip-path="url(#361e6ef0d8)"><g clip-path="url(#683837eddc)"><path fill="#66259b" d="M 20.230469 6.722656 L 10.8125 3.046875 L 18.75 -5.355469 L 28.171875 -1.679688 Z M 20.230469 6.722656 " fill-opacity="1" fill-rule="nonzero"/></g></g></g><g clip-path="url(#cc1f830de5)"><g clip-path="url(#762d116cf5)"><g clip-path="url(#1faaf1a7f7)"><path fill="#561b66" d="M 19.519531 9.636719 L 16.539062 8.472656 L 20.941406 3.8125 L 23.925781 4.976562 Z M 19.519531 9.636719 " fill-opacity="1" fill-rule="nonzero"/></g></g></g><g clip-path="url(#143df9e30e)"><g clip-path="url(#30ee8ce639)"><g clip-path="url(#74504e16dc)"><path fill="#66259b" d="M -1.417969 29.679688 L -12.167969 25.484375 L 3.714844 8.679688 L 14.460938 12.875 Z M -1.417969 29.679688 " fill-opacity="1" fill-rule="nonzero"/></g></g></g><g clip-path="url(#3c662e2810)"><g clip-path="url(#0b20bd5d46)"><g clip-path="url(#97dc57fa09)"><path fill="#c521e0" d="M 7.878906 13.722656 L 4.894531 12.558594 L 9.300781 7.894531 L 12.285156 9.058594 Z M 7.878906 13.722656 " fill-opacity="1" fill-rule="nonzero"/></g></g></g><g clip-path="url(#5d5df838ed)"><g clip-path="url(#d1f0239feb)"><g clip-path="url(#1151ab48f7)"><path fill="#c521e0" d="M 23.5 -4.914062 L 18.554688 0.320312 L 27.976562 3.996094 L 32.921875 -1.238281 Z M 23.5 -4.914062 " fill-opacity="1" fill-rule="nonzero"/></g></g></g><g clip-path="url(#980d1b4039)"><g clip-path="url(#6291576afd)"><g clip-path="url(#3be202c1ad)"><path fill="#c521e0" d="M 19.542969 -6.457031 L -3.992188 18.449219 L -3.601562 18.601562 L 19.933594 -6.304688 Z M 19.542969 -6.457031 " fill-opacity="1" fill-rule="nonzero"/></g></g></g><g clip-path="url(#fd5ea75bee)"><g clip-path="url(#a8884a23c4)"><g clip-path="url(#862089fd27)"><path fill="#c521e0" d="M 21.84375 -5.558594 L 13.839844 2.910156 L 14.230469 3.0625 L 22.234375 -5.410156 Z M 21.84375 -5.558594 " fill-opacity="1" fill-rule="nonzero"/></g></g></g><g clip-path="url(#ed70a98233)"><g clip-path="url(#032974eb4f)"><g clip-path="url(#16ea82eb07)"><path fill="#561b66" d="M 0.578125 22.9375 L -7.425781 31.410156 L -7.035156 31.5625 L 0.964844 23.089844 Z M 0.578125 22.9375 " fill-opacity="1" fill-rule="nonzero"/></g></g></g><g clip-path="url(#effd714b91)"><g clip-path="url(#df4782526f)"><g clip-path="url(#23d97fb6e3)"><path fill="#c521e0" d="M -5.855469 8.742188 L 9.023438 -7.003906 L 7.691406 -7.523438 L -4.574219 5.457031 Z M -5.855469 8.742188 " fill-opacity="1" fill-rule="nonzero"/></g></g></g></svg>