<svg xmlns="http://www.w3.org/2000/svg" xmlns:xlink="http://www.w3.org/1999/xlink" width="230" zoomAndPan="magnify" viewBox="0 0 172.5 74.999997" height="100" preserveAspectRatio="xMidYMid meet" version="1.0"><defs><clipPath id="f108697c76"><path d="M 0 0.109375 L 172 0.109375 L 172 74.890625 L 0 74.890625 Z M 0 0.109375 " clip-rule="nonzero"/></clipPath><clipPath id="1e0c26aac5"><path d="M 144 0.109375 L 172 0.109375 L 172 32 L 144 32 Z M 144 0.109375 " clip-rule="nonzero"/></clipPath><clipPath id="4a2aa11e12"><path d="M 136.53125 0.046875 L 173.246094 -10.28125 L 187.625 40.832031 L 150.910156 51.160156 Z M 136.53125 0.046875 " clip-rule="nonzero"/></clipPath><clipPath id="b00a91945c"><path d="M 173.179688 -10.261719 L 136.464844 0.0664062 L 150.84375 51.179688 L 187.558594 40.851562 Z M 173.179688 -10.261719 " clip-rule="nonzero"/></clipPath><clipPath id="44af35c57a"><path d="M 142 0.109375 L 162 0.109375 L 162 11 L 142 11 Z M 142 0.109375 " clip-rule="nonzero"/></clipPath><clipPath id="0a0bb8b166"><path d="M 136.53125 0.046875 L 173.246094 -10.28125 L 187.625 40.832031 L 150.910156 51.160156 Z M 136.53125 0.046875 " clip-rule="nonzero"/></clipPath><clipPath id="1e2924d192"><path d="M 173.179688 -10.261719 L 136.464844 0.0664062 L 150.84375 51.179688 L 187.558594 40.851562 Z M 173.179688 -10.261719 " clip-rule="nonzero"/></clipPath><clipPath id="46c4eb77ae"><path d="M 146 7 L 155 7 L 155 15 L 146 15 Z M 146 7 " clip-rule="nonzero"/></clipPath><clipPath id="54a9537a43"><path d="M 136.53125 0.046875 L 173.246094 -10.28125 L 187.625 40.832031 L 150.910156 51.160156 Z M 136.53125 0.046875 " clip-rule="nonzero"/></clipPath><clipPath id="fa03bef991"><path d="M 173.179688 -10.261719 L 136.464844 0.0664062 L 150.84375 51.179688 L 187.558594 40.851562 Z M 173.179688 -10.261719 " clip-rule="nonzero"/></clipPath><clipPath id="f1b925c378"><path d="M 156 14 L 172 14 L 172 40 L 156 40 Z M 156 14 " clip-rule="nonzero"/></clipPath><clipPath id="b42f645e52"><path d="M 136.53125 0.046875 L 173.246094 -10.28125 L 187.625 40.832031 L 150.910156 51.160156 Z M 136.53125 0.046875 " clip-rule="nonzero"/></clipPath><clipPath id="e06e9492e4"><path d="M 173.179688 -10.261719 L 136.464844 0.0664062 L 150.84375 51.179688 L 187.558594 40.851562 Z M 173.179688 -10.261719 " clip-rule="nonzero"/></clipPath><clipPath id="6d273f1bbe"><path d="M 159 13 L 168 13 L 168 21 L 159 21 Z M 159 13 " clip-rule="nonzero"/></clipPath><clipPath id="daf78ccf3c"><path d="M 136.53125 0.046875 L 173.246094 -10.28125 L 187.625 40.832031 L 150.910156 51.160156 Z M 136.53125 0.046875 " clip-rule="nonzero"/></clipPath><clipPath id="b71d48d31e"><path d="M 173.179688 -10.261719 L 136.464844 0.0664062 L 150.84375 51.179688 L 187.558594 40.851562 Z M 173.179688 -10.261719 " clip-rule="nonzero"/></clipPath><clipPath id="0561923241"><path d="M 136 0.109375 L 154 0.109375 L 154 7 L 136 7 Z M 136 0.109375 " clip-rule="nonzero"/></clipPath><clipPath id="fa14cc2361"><path d="M 136.53125 0.046875 L 173.246094 -10.28125 L 187.625 40.832031 L 150.910156 51.160156 Z M 136.53125 0.046875 " clip-rule="nonzero"/></clipPath><clipPath id="3a9c98abca"><path d="M 173.179688 -10.261719 L 136.464844 0.0664062 L 150.84375 51.179688 L 187.558594 40.851562 Z M 173.179688 -10.261719 " clip-rule="nonzero"/></clipPath><clipPath id="07af4cf79e"><path d="M 152 0.109375 L 172 0.109375 L 172 28 L 152 28 Z M 152 0.109375 " clip-rule="nonzero"/></clipPath><clipPath id="fe38fc2726"><path d="M 136.53125 0.046875 L 173.246094 -10.28125 L 187.625 40.832031 L 150.910156 51.160156 Z M 136.53125 0.046875 " clip-rule="nonzero"/></clipPath><clipPath id="92074e2d46"><path d="M 173.179688 -10.261719 L 136.464844 0.0664062 L 150.84375 51.179688 L 187.558594 40.851562 Z M 173.179688 -10.261719 " clip-rule="nonzero"/></clipPath><clipPath id="c7d188d0cb"><path d="M 149 0.109375 L 159 0.109375 L 159 8 L 149 8 Z M 149 0.109375 " clip-rule="nonzero"/></clipPath><clipPath id="7bbcc6ffca"><path d="M 136.53125 0.046875 L 173.246094 -10.28125 L 187.625 40.832031 L 150.910156 51.160156 Z M 136.53125 0.046875 " clip-rule="nonzero"/></clipPath><clipPath id="080731f75f"><path d="M 173.179688 -10.261719 L 136.464844 0.0664062 L 150.84375 51.179688 L 187.558594 40.851562 Z M 173.179688 -10.261719 " clip-rule="nonzero"/></clipPath><clipPath id="54dca04b85"><path d="M 170 31 L 172 31 L 172 43 L 170 43 Z M 170 31 " clip-rule="nonzero"/></clipPath><clipPath id="717791a8c0"><path d="M 136.53125 0.046875 L 173.246094 -10.28125 L 187.625 40.832031 L 150.910156 51.160156 Z M 136.53125 0.046875 " clip-rule="nonzero"/></clipPath><clipPath id="3d2c6765b2"><path d="M 173.179688 -10.261719 L 136.464844 0.0664062 L 150.84375 51.179688 L 187.558594 40.851562 Z M 173.179688 -10.261719 " clip-rule="nonzero"/></clipPath><clipPath id="3912679cba"><path d="M 165 0.109375 L 172 0.109375 L 172 17 L 165 17 Z M 165 0.109375 " clip-rule="nonzero"/></clipPath><clipPath id="3fbd2e9e84"><path d="M 136.53125 0.046875 L 173.246094 -10.28125 L 187.625 40.832031 L 150.910156 51.160156 Z M 136.53125 0.046875 " clip-rule="nonzero"/></clipPath><clipPath id="1dc8c161e2"><path d="M 173.179688 -10.261719 L 136.464844 0.0664062 L 150.84375 51.179688 L 187.558594 40.851562 Z M 173.179688 -10.261719 " clip-rule="nonzero"/></clipPath></defs><g clip-path="url(#f108697c76)"><path fill="#ffffff" d="M 0 0.109375 L 172 0.109375 L 172 74.890625 L 0 74.890625 Z M 0 0.109375 " fill-opacity="1" fill-rule="nonzero"/><path fill="#ffffff" d="M 0 0.109375 L 172 0.109375 L 172 74.890625 L 0 74.890625 Z M 0 0.109375 " fill-opacity="1" fill-rule="nonzero"/></g><g clip-path="url(#1e0c26aac5)"><g clip-path="url(#4a2aa11e12)"><g clip-path="url(#b00a91945c)"><path fill="#561b66" d="M 165.707031 -8.160156 L 178.351562 8.160156 L 184.039062 28.378906 L 171.257812 31.972656 L 144.734375 -2.261719 Z M 165.707031 -8.160156 " fill-opacity="1" fill-rule="nonzero"/></g></g></g><g clip-path="url(#44af35c57a)"><g clip-path="url(#0a0bb8b166)"><g clip-path="url(#1e2924d192)"><path fill="#66259b" d="M 150.417969 10.773438 L 161.816406 7.566406 L 153.527344 -3.132812 L 142.132812 0.0742188 Z M 150.417969 10.773438 " fill-opacity="1" fill-rule="nonzero"/></g></g></g><g clip-path="url(#46c4eb77ae)"><g clip-path="url(#54a9537a43)"><g clip-path="url(#fa03bef991)"><path fill="#561b66" d="M 150.914062 14.25 L 154.523438 13.234375 L 149.925781 7.296875 L 146.316406 8.3125 Z M 150.914062 14.25 " fill-opacity="1" fill-rule="nonzero"/></g></g></g><g clip-path="url(#f1b925c378)"><g clip-path="url(#b42f645e52)"><g clip-path="url(#e06e9492e4)"><path fill="#66259b" d="M 173.015625 40 L 186.023438 36.339844 L 169.441406 14.941406 L 156.4375 18.601562 Z M 173.015625 40 " fill-opacity="1" fill-rule="nonzero"/></g></g></g><g clip-path="url(#6d273f1bbe)"><g clip-path="url(#daf78ccf3c)"><g clip-path="url(#b71d48d31e)"><path fill="#c521e0" d="M 164.011719 20.339844 L 167.621094 19.324219 L 163.019531 13.386719 L 159.414062 14.402344 Z M 164.011719 20.339844 " fill-opacity="1" fill-rule="nonzero"/></g></g></g><g clip-path="url(#0561923241)"><g clip-path="url(#fa14cc2361)"><g clip-path="url(#3a9c98abca)"><path fill="#c521e0" d="M 147.941406 -3.164062 L 153.105469 3.5 L 141.710938 6.707031 L 136.546875 0.0429688 Z M 147.941406 -3.164062 " fill-opacity="1" fill-rule="nonzero"/></g></g></g><g clip-path="url(#07af4cf79e)"><g clip-path="url(#fe38fc2726)"><g clip-path="url(#92074e2d46)"><path fill="#c521e0" d="M 152.730469 -4.507812 L 177.304688 27.207031 L 176.832031 27.339844 L 152.261719 -4.378906 Z M 152.730469 -4.507812 " fill-opacity="1" fill-rule="nonzero"/></g></g></g><g clip-path="url(#c7d188d0cb)"><g clip-path="url(#7bbcc6ffca)"><g clip-path="url(#080731f75f)"><path fill="#c521e0" d="M 149.945312 -3.726562 L 158.300781 7.058594 L 157.832031 7.191406 L 149.476562 -3.59375 Z M 149.945312 -3.726562 " fill-opacity="1" fill-rule="nonzero"/></g></g></g><g clip-path="url(#54dca04b85)"><g clip-path="url(#717791a8c0)"><g clip-path="url(#3d2c6765b2)"><path fill="#561b66" d="M 171.464844 31.917969 L 179.820312 42.703125 L 179.347656 42.832031 L 170.992188 32.046875 Z M 171.464844 31.917969 " fill-opacity="1" fill-rule="nonzero"/></g></g></g><g clip-path="url(#3912679cba)"><g clip-path="url(#3fbd2e9e84)"><g clip-path="url(#1dc8c161e2)"><path fill="#c521e0" d="M 180.585938 16.113281 L 165.050781 -3.941406 L 166.660156 -4.394531 L 179.46875 12.136719 Z M 180.585938 16.113281 " fill-opacity="1" fill-rule="nonzero"/></g></g></g></svg>