<svg xmlns="http://www.w3.org/2000/svg" xmlns:xlink="http://www.w3.org/1999/xlink" width="230" zoomAndPan="magnify" viewBox="0 0 172.5 74.999997" height="100" preserveAspectRatio="xMidYMid meet" version="1.0"><defs><clipPath id="2d263fa478"><path d="M 0 0.109375 L 172 0.109375 L 172 74.890625 L 0 74.890625 Z M 0 0.109375 " clip-rule="nonzero"/></clipPath><clipPath id="fcca509c1b"><path d="M 144 0.109375 L 172 0.109375 L 172 32 L 144 32 Z M 144 0.109375 " clip-rule="nonzero"/></clipPath><clipPath id="3abb81a7c9"><path d="M 136.53125 0.046875 L 173.246094 -10.28125 L 187.625 40.832031 L 150.910156 51.160156 Z M 136.53125 0.046875 " clip-rule="nonzero"/></clipPath><clipPath id="cac4238abc"><path d="M 173.179688 -10.261719 L 136.464844 0.0664062 L 150.84375 51.179688 L 187.558594 40.851562 Z M 173.179688 -10.261719 " clip-rule="nonzero"/></clipPath><clipPath id="db78057c47"><path d="M 142 0.109375 L 162 0.109375 L 162 11 L 142 11 Z M 142 0.109375 " clip-rule="nonzero"/></clipPath><clipPath id="fb699df359"><path d="M 136.53125 0.046875 L 173.246094 -10.28125 L 187.625 40.832031 L 150.910156 51.160156 Z M 136.53125 0.046875 " clip-rule="nonzero"/></clipPath><clipPath id="fe04ac0d7a"><path d="M 173.179688 -10.261719 L 136.464844 0.0664062 L 150.84375 51.179688 L 187.558594 40.851562 Z M 173.179688 -10.261719 " clip-rule="nonzero"/></clipPath><clipPath id="70c5436390"><path d="M 146 7 L 155 7 L 155 15 L 146 15 Z M 146 7 " clip-rule="nonzero"/></clipPath><clipPath id="6b4167f882"><path d="M 136.53125 0.046875 L 173.246094 -10.28125 L 187.625 40.832031 L 150.910156 51.160156 Z M 136.53125 0.046875 " clip-rule="nonzero"/></clipPath><clipPath id="b285f66ec6"><path d="M 173.179688 -10.261719 L 136.464844 0.0664062 L 150.84375 51.179688 L 187.558594 40.851562 Z M 173.179688 -10.261719 " clip-rule="nonzero"/></clipPath><clipPath id="15f206b445"><path d="M 156 14 L 172 14 L 172 40 L 156 40 Z M 156 14 " clip-rule="nonzero"/></clipPath><clipPath id="e8ff6c3048"><path d="M 136.53125 0.046875 L 173.246094 -10.28125 L 187.625 40.832031 L 150.910156 51.160156 Z M 136.53125 0.046875 " clip-rule="nonzero"/></clipPath><clipPath id="18de4b230b"><path d="M 173.179688 -10.261719 L 136.464844 0.0664062 L 150.84375 51.179688 L 187.558594 40.851562 Z M 173.179688 -10.261719 " clip-rule="nonzero"/></clipPath><clipPath id="0b7e2da1ed"><path d="M 159 13 L 168 13 L 168 21 L 159 21 Z M 159 13 " clip-rule="nonzero"/></clipPath><clipPath id="10f9b26576"><path d="M 136.53125 0.046875 L 173.246094 -10.28125 L 187.625 40.832031 L 150.910156 51.160156 Z M 136.53125 0.046875 " clip-rule="nonzero"/></clipPath><clipPath id="444b7e61cb"><path d="M 173.179688 -10.261719 L 136.464844 0.0664062 L 150.84375 51.179688 L 187.558594 40.851562 Z M 173.179688 -10.261719 " clip-rule="nonzero"/></clipPath><clipPath id="36b10e8a5d"><path d="M 136 0.109375 L 154 0.109375 L 154 7 L 136 7 Z M 136 0.109375 " clip-rule="nonzero"/></clipPath><clipPath id="b0371a9313"><path d="M 136.53125 0.046875 L 173.246094 -10.28125 L 187.625 40.832031 L 150.910156 51.160156 Z M 136.53125 0.046875 " clip-rule="nonzero"/></clipPath><clipPath id="0516a2c30c"><path d="M 173.179688 -10.261719 L 136.464844 0.0664062 L 150.84375 51.179688 L 187.558594 40.851562 Z M 173.179688 -10.261719 " clip-rule="nonzero"/></clipPath><clipPath id="9fd41b18c2"><path d="M 152 0.109375 L 172 0.109375 L 172 28 L 152 28 Z M 152 0.109375 " clip-rule="nonzero"/></clipPath><clipPath id="b08371f957"><path d="M 136.53125 0.046875 L 173.246094 -10.28125 L 187.625 40.832031 L 150.910156 51.160156 Z M 136.53125 0.046875 " clip-rule="nonzero"/></clipPath><clipPath id="949958ae15"><path d="M 173.179688 -10.261719 L 136.464844 0.0664062 L 150.84375 51.179688 L 187.558594 40.851562 Z M 173.179688 -10.261719 " clip-rule="nonzero"/></clipPath><clipPath id="0d9440c930"><path d="M 149 0.109375 L 159 0.109375 L 159 8 L 149 8 Z M 149 0.109375 " clip-rule="nonzero"/></clipPath><clipPath id="d677d27e48"><path d="M 136.53125 0.046875 L 173.246094 -10.28125 L 187.625 40.832031 L 150.910156 51.160156 Z M 136.53125 0.046875 " clip-rule="nonzero"/></clipPath><clipPath id="edc2749e63"><path d="M 173.179688 -10.261719 L 136.464844 0.0664062 L 150.84375 51.179688 L 187.558594 40.851562 Z M 173.179688 -10.261719 " clip-rule="nonzero"/></clipPath><clipPath id="88e61e954b"><path d="M 170 31 L 172 31 L 172 43 L 170 43 Z M 170 31 " clip-rule="nonzero"/></clipPath><clipPath id="abc623bef8"><path d="M 136.53125 0.046875 L 173.246094 -10.28125 L 187.625 40.832031 L 150.910156 51.160156 Z M 136.53125 0.046875 " clip-rule="nonzero"/></clipPath><clipPath id="c675b6ea9a"><path d="M 173.179688 -10.261719 L 136.464844 0.0664062 L 150.84375 51.179688 L 187.558594 40.851562 Z M 173.179688 -10.261719 " clip-rule="nonzero"/></clipPath><clipPath id="882a515be3"><path d="M 165 0.109375 L 172 0.109375 L 172 17 L 165 17 Z M 165 0.109375 " clip-rule="nonzero"/></clipPath><clipPath id="878eada775"><path d="M 136.53125 0.046875 L 173.246094 -10.28125 L 187.625 40.832031 L 150.910156 51.160156 Z M 136.53125 0.046875 " clip-rule="nonzero"/></clipPath><clipPath id="1534d714e0"><path d="M 173.179688 -10.261719 L 136.464844 0.0664062 L 150.84375 51.179688 L 187.558594 40.851562 Z M 173.179688 -10.261719 " clip-rule="nonzero"/></clipPath></defs><g clip-path="url(#2d263fa478)"><path fill="#ffffff" d="M 0 0.109375 L 172 0.109375 L 172 74.890625 L 0 74.890625 Z M 0 0.109375 " fill-opacity="1" fill-rule="nonzero"/><path fill="#ffffff" d="M 0 0.109375 L 172 0.109375 L 172 74.890625 L 0 74.890625 Z M 0 0.109375 " fill-opacity="1" fill-rule="nonzero"/></g><g clip-path="url(#fcca509c1b)"><g clip-path="url(#3abb81a7c9)"><g clip-path="url(#cac4238abc)"><path fill="#561b66" d="M 165.707031 -8.160156 L 178.351562 8.160156 L 184.039062 28.378906 L 171.257812 31.972656 L 144.734375 -2.261719 Z M 165.707031 -8.160156 " fill-opacity="1" fill-rule="nonzero"/></g></g></g><g clip-path="url(#db78057c47)"><g clip-path="url(#fb699df359)"><g clip-path="url(#fe04ac0d7a)"><path fill="#66259b" d="M 150.417969 10.773438 L 161.816406 7.566406 L 153.527344 -3.132812 L 142.132812 0.0742188 Z M 150.417969 10.773438 " fill-opacity="1" fill-rule="nonzero"/></g></g></g><g clip-path="url(#70c5436390)"><g clip-path="url(#6b4167f882)"><g clip-path="url(#b285f66ec6)"><path fill="#561b66" d="M 150.914062 14.25 L 154.523438 13.234375 L 149.925781 7.296875 L 146.316406 8.3125 Z M 150.914062 14.25 " fill-opacity="1" fill-rule="nonzero"/></g></g></g><g clip-path="url(#15f206b445)"><g clip-path="url(#e8ff6c3048)"><g clip-path="url(#18de4b230b)"><path fill="#66259b" d="M 173.015625 40 L 186.023438 36.339844 L 169.441406 14.941406 L 156.4375 18.601562 Z M 173.015625 40 " fill-opacity="1" fill-rule="nonzero"/></g></g></g><g clip-path="url(#0b7e2da1ed)"><g clip-path="url(#10f9b26576)"><g clip-path="url(#444b7e61cb)"><path fill="#c521e0" d="M 164.011719 20.339844 L 167.621094 19.324219 L 163.019531 13.386719 L 159.414062 14.402344 Z M 164.011719 20.339844 " fill-opacity="1" fill-rule="nonzero"/></g></g></g><g clip-path="url(#36b10e8a5d)"><g clip-path="url(#b0371a9313)"><g clip-path="url(#0516a2c30c)"><path fill="#c521e0" d="M 147.941406 -3.164062 L 153.105469 3.5 L 141.710938 6.707031 L 136.546875 0.0429688 Z M 147.941406 -3.164062 " fill-opacity="1" fill-rule="nonzero"/></g></g></g><g clip-path="url(#9fd41b18c2)"><g clip-path="url(#b08371f957)"><g clip-path="url(#949958ae15)"><path fill="#c521e0" d="M 152.730469 -4.507812 L 177.304688 27.207031 L 176.832031 27.339844 L 152.261719 -4.378906 Z M 152.730469 -4.507812 " fill-opacity="1" fill-rule="nonzero"/></g></g></g><g clip-path="url(#0d9440c930)"><g clip-path="url(#d677d27e48)"><g clip-path="url(#edc2749e63)"><path fill="#c521e0" d="M 149.945312 -3.726562 L 158.300781 7.058594 L 157.832031 7.191406 L 149.476562 -3.59375 Z M 149.945312 -3.726562 " fill-opacity="1" fill-rule="nonzero"/></g></g></g><g clip-path="url(#88e61e954b)"><g clip-path="url(#abc623bef8)"><g clip-path="url(#c675b6ea9a)"><path fill="#561b66" d="M 171.464844 31.917969 L 179.820312 42.703125 L 179.347656 42.832031 L 170.992188 32.046875 Z M 171.464844 31.917969 " fill-opacity="1" fill-rule="nonzero"/></g></g></g><g clip-path="url(#882a515be3)"><g clip-path="url(#878eada775)"><g clip-path="url(#1534d714e0)"><path fill="#c521e0" d="M 180.585938 16.113281 L 165.050781 -3.941406 L 166.660156 -4.394531 L 179.46875 12.136719 Z M 180.585938 16.113281 " fill-opacity="1" fill-rule="nonzero"/></g></g></g></svg>