<svg xmlns="http://www.w3.org/2000/svg" xmlns:xlink="http://www.w3.org/1999/xlink" width="230" zoomAndPan="magnify" viewBox="0 0 172.5 74.999997" height="100" preserveAspectRatio="xMidYMid meet" version="1.0"><defs><clipPath id="9762444c83"><path d="M 0 0.109375 L 172 0.109375 L 172 74.890625 L 0 74.890625 Z M 0 0.109375 " clip-rule="nonzero"/></clipPath><clipPath id="42b828e17c"><path d="M 144 0.109375 L 172 0.109375 L 172 32 L 144 32 Z M 144 0.109375 " clip-rule="nonzero"/></clipPath><clipPath id="a196e9851c"><path d="M 136.53125 0.046875 L 173.246094 -10.28125 L 187.625 40.832031 L 150.910156 51.160156 Z M 136.53125 0.046875 " clip-rule="nonzero"/></clipPath><clipPath id="59142aab48"><path d="M 173.179688 -10.261719 L 136.464844 0.0664062 L 150.84375 51.179688 L 187.558594 40.851562 Z M 173.179688 -10.261719 " clip-rule="nonzero"/></clipPath><clipPath id="11ae6081a8"><path d="M 142 0.109375 L 162 0.109375 L 162 11 L 142 11 Z M 142 0.109375 " clip-rule="nonzero"/></clipPath><clipPath id="f239dd9485"><path d="M 136.53125 0.046875 L 173.246094 -10.28125 L 187.625 40.832031 L 150.910156 51.160156 Z M 136.53125 0.046875 " clip-rule="nonzero"/></clipPath><clipPath id="4d7df99c92"><path d="M 173.179688 -10.261719 L 136.464844 0.0664062 L 150.84375 51.179688 L 187.558594 40.851562 Z M 173.179688 -10.261719 " clip-rule="nonzero"/></clipPath><clipPath id="47cdaf6db2"><path d="M 146 7 L 155 7 L 155 15 L 146 15 Z M 146 7 " clip-rule="nonzero"/></clipPath><clipPath id="0008755c05"><path d="M 136.53125 0.046875 L 173.246094 -10.28125 L 187.625 40.832031 L 150.910156 51.160156 Z M 136.53125 0.046875 " clip-rule="nonzero"/></clipPath><clipPath id="91fb8d84ef"><path d="M 173.179688 -10.261719 L 136.464844 0.0664062 L 150.84375 51.179688 L 187.558594 40.851562 Z M 173.179688 -10.261719 " clip-rule="nonzero"/></clipPath><clipPath id="2ef29e02e6"><path d="M 156 14 L 172 14 L 172 40 L 156 40 Z M 156 14 " clip-rule="nonzero"/></clipPath><clipPath id="63742e02ce"><path d="M 136.53125 0.046875 L 173.246094 -10.28125 L 187.625 40.832031 L 150.910156 51.160156 Z M 136.53125 0.046875 " clip-rule="nonzero"/></clipPath><clipPath id="0729031afb"><path d="M 173.179688 -10.261719 L 136.464844 0.0664062 L 150.84375 51.179688 L 187.558594 40.851562 Z M 173.179688 -10.261719 " clip-rule="nonzero"/></clipPath><clipPath id="2795fae75d"><path d="M 159 13 L 168 13 L 168 21 L 159 21 Z M 159 13 " clip-rule="nonzero"/></clipPath><clipPath id="1899bb87fb"><path d="M 136.53125 0.046875 L 173.246094 -10.28125 L 187.625 40.832031 L 150.910156 51.160156 Z M 136.53125 0.046875 " clip-rule="nonzero"/></clipPath><clipPath id="59714f4fe9"><path d="M 173.179688 -10.261719 L 136.464844 0.0664062 L 150.84375 51.179688 L 187.558594 40.851562 Z M 173.179688 -10.261719 " clip-rule="nonzero"/></clipPath><clipPath id="8609d77887"><path d="M 136 0.109375 L 154 0.109375 L 154 7 L 136 7 Z M 136 0.109375 " clip-rule="nonzero"/></clipPath><clipPath id="de9f4b9b39"><path d="M 136.53125 0.046875 L 173.246094 -10.28125 L 187.625 40.832031 L 150.910156 51.160156 Z M 136.53125 0.046875 " clip-rule="nonzero"/></clipPath><clipPath id="e16e6a2a5b"><path d="M 173.179688 -10.261719 L 136.464844 0.0664062 L 150.84375 51.179688 L 187.558594 40.851562 Z M 173.179688 -10.261719 " clip-rule="nonzero"/></clipPath><clipPath id="83022b1147"><path d="M 152 0.109375 L 172 0.109375 L 172 28 L 152 28 Z M 152 0.109375 " clip-rule="nonzero"/></clipPath><clipPath id="e2ac6d4f39"><path d="M 136.53125 0.046875 L 173.246094 -10.28125 L 187.625 40.832031 L 150.910156 51.160156 Z M 136.53125 0.046875 " clip-rule="nonzero"/></clipPath><clipPath id="5610523885"><path d="M 173.179688 -10.261719 L 136.464844 0.0664062 L 150.84375 51.179688 L 187.558594 40.851562 Z M 173.179688 -10.261719 " clip-rule="nonzero"/></clipPath><clipPath id="46f9140b6a"><path d="M 149 0.109375 L 159 0.109375 L 159 8 L 149 8 Z M 149 0.109375 " clip-rule="nonzero"/></clipPath><clipPath id="cee6cb6eda"><path d="M 136.53125 0.046875 L 173.246094 -10.28125 L 187.625 40.832031 L 150.910156 51.160156 Z M 136.53125 0.046875 " clip-rule="nonzero"/></clipPath><clipPath id="35372040d7"><path d="M 173.179688 -10.261719 L 136.464844 0.0664062 L 150.84375 51.179688 L 187.558594 40.851562 Z M 173.179688 -10.261719 " clip-rule="nonzero"/></clipPath><clipPath id="6d9c1c3822"><path d="M 170 31 L 172 31 L 172 43 L 170 43 Z M 170 31 " clip-rule="nonzero"/></clipPath><clipPath id="5d00b27fa3"><path d="M 136.53125 0.046875 L 173.246094 -10.28125 L 187.625 40.832031 L 150.910156 51.160156 Z M 136.53125 0.046875 " clip-rule="nonzero"/></clipPath><clipPath id="100738440e"><path d="M 173.179688 -10.261719 L 136.464844 0.0664062 L 150.84375 51.179688 L 187.558594 40.851562 Z M 173.179688 -10.261719 " clip-rule="nonzero"/></clipPath><clipPath id="5458a032a0"><path d="M 165 0.109375 L 172 0.109375 L 172 17 L 165 17 Z M 165 0.109375 " clip-rule="nonzero"/></clipPath><clipPath id="56b3ca1d85"><path d="M 136.53125 0.046875 L 173.246094 -10.28125 L 187.625 40.832031 L 150.910156 51.160156 Z M 136.53125 0.046875 " clip-rule="nonzero"/></clipPath><clipPath id="a2c9eaa312"><path d="M 173.179688 -10.261719 L 136.464844 0.0664062 L 150.84375 51.179688 L 187.558594 40.851562 Z M 173.179688 -10.261719 " clip-rule="nonzero"/></clipPath></defs><g clip-path="url(#9762444c83)"><path fill="#ffffff" d="M 0 0.109375 L 172 0.109375 L 172 74.890625 L 0 74.890625 Z M 0 0.109375 " fill-opacity="1" fill-rule="nonzero"/><path fill="#ffffff" d="M 0 0.109375 L 172 0.109375 L 172 74.890625 L 0 74.890625 Z M 0 0.109375 " fill-opacity="1" fill-rule="nonzero"/></g><g clip-path="url(#42b828e17c)"><g clip-path="url(#a196e9851c)"><g clip-path="url(#59142aab48)"><path fill="#561b66" d="M 165.707031 -8.160156 L 178.351562 8.160156 L 184.039062 28.378906 L 171.257812 31.972656 L 144.734375 -2.261719 Z M 165.707031 -8.160156 " fill-opacity="1" fill-rule="nonzero"/></g></g></g><g clip-path="url(#11ae6081a8)"><g clip-path="url(#f239dd9485)"><g clip-path="url(#4d7df99c92)"><path fill="#66259b" d="M 150.417969 10.773438 L 161.816406 7.566406 L 153.527344 -3.132812 L 142.132812 0.0742188 Z M 150.417969 10.773438 " fill-opacity="1" fill-rule="nonzero"/></g></g></g><g clip-path="url(#47cdaf6db2)"><g clip-path="url(#0008755c05)"><g clip-path="url(#91fb8d84ef)"><path fill="#561b66" d="M 150.914062 14.25 L 154.523438 13.234375 L 149.925781 7.296875 L 146.316406 8.3125 Z M 150.914062 14.25 " fill-opacity="1" fill-rule="nonzero"/></g></g></g><g clip-path="url(#2ef29e02e6)"><g clip-path="url(#63742e02ce)"><g clip-path="url(#0729031afb)"><path fill="#66259b" d="M 173.015625 40 L 186.023438 36.339844 L 169.441406 14.941406 L 156.4375 18.601562 Z M 173.015625 40 " fill-opacity="1" fill-rule="nonzero"/></g></g></g><g clip-path="url(#2795fae75d)"><g clip-path="url(#1899bb87fb)"><g clip-path="url(#59714f4fe9)"><path fill="#c521e0" d="M 164.011719 20.339844 L 167.621094 19.324219 L 163.019531 13.386719 L 159.414062 14.402344 Z M 164.011719 20.339844 " fill-opacity="1" fill-rule="nonzero"/></g></g></g><g clip-path="url(#8609d77887)"><g clip-path="url(#de9f4b9b39)"><g clip-path="url(#e16e6a2a5b)"><path fill="#c521e0" d="M 147.941406 -3.164062 L 153.105469 3.5 L 141.710938 6.707031 L 136.546875 0.0429688 Z M 147.941406 -3.164062 " fill-opacity="1" fill-rule="nonzero"/></g></g></g><g clip-path="url(#83022b1147)"><g clip-path="url(#e2ac6d4f39)"><g clip-path="url(#5610523885)"><path fill="#c521e0" d="M 152.730469 -4.507812 L 177.304688 27.207031 L 176.832031 27.339844 L 152.261719 -4.378906 Z M 152.730469 -4.507812 " fill-opacity="1" fill-rule="nonzero"/></g></g></g><g clip-path="url(#46f9140b6a)"><g clip-path="url(#cee6cb6eda)"><g clip-path="url(#35372040d7)"><path fill="#c521e0" d="M 149.945312 -3.726562 L 158.300781 7.058594 L 157.832031 7.191406 L 149.476562 -3.59375 Z M 149.945312 -3.726562 " fill-opacity="1" fill-rule="nonzero"/></g></g></g><g clip-path="url(#6d9c1c3822)"><g clip-path="url(#5d00b27fa3)"><g clip-path="url(#100738440e)"><path fill="#561b66" d="M 171.464844 31.917969 L 179.820312 42.703125 L 179.347656 42.832031 L 170.992188 32.046875 Z M 171.464844 31.917969 " fill-opacity="1" fill-rule="nonzero"/></g></g></g><g clip-path="url(#5458a032a0)"><g clip-path="url(#56b3ca1d85)"><g clip-path="url(#a2c9eaa312)"><path fill="#c521e0" d="M 180.585938 16.113281 L 165.050781 -3.941406 L 166.660156 -4.394531 L 179.46875 12.136719 Z M 180.585938 16.113281 " fill-opacity="1" fill-rule="nonzero"/></g></g></g></svg>